<svg width="690" height="674" viewBox="0 0 690 674" fill="none" xmlns="http://www.w3.org/2000/svg">
<path d="M87.4062 312.681C81.0026 204.178 200.011 138.155 249.503 116.731C346.193 94.2199 295.296 120.402 439.25 115.113C635.283 107.909 575.56 259.437 591.048 332.591C610.539 424.654 570.001 428.843 494.541 506.16C419.081 583.476 319.942 594.89 241.088 586.39C162.234 577.89 95.4106 448.309 87.4062 312.681Z" fill="#A4A180" stroke="#A4A180"/>
<path d="M168.452 546.62C40.5839 501.285 85.4604 289.551 131.947 210.612C150.878 178.465 223.874 149.455 259.307 117.946C303.598 78.5598 314.943 57.6981 391.344 50.7839C467.745 43.8696 592.915 61.3198 569.029 175.336C543.72 296.143 589.943 400.784 524.912 512.578C459.88 624.372 335.489 605.841 168.452 546.62Z" fill="#DAB6C2" stroke="#DAB6C2"/>
</svg>
